<svg width="474" height="95" viewBox="0 0 474 95" fill="none" xmlns="http://www.w3.org/2000/svg">
<g clip-path="url(#clip0_55_35)">
<path d="M36.74 77.2901C36.74 68.6101 36.74 59.9201 36.78 51.2401C36.78 50.6001 36.56 50.2301 36.01 49.9201C32.73 48.0501 29.46 46.1501 26.18 44.2701C25.98 44.1601 25.76 44.0901 25.41 43.9501V65.9001C25.14 65.5201 25 65.3701 24.92 65.1901C23.66 62.6001 22.41 60.0001 21.16 57.4001C17.72 50.2701 14.28 43.1401 10.81 36.0301C10.56 35.5201 10.09 35.0301 9.6 34.7301C6.59 32.9501 0.24 29.3801 0 29.3101C0 29.7001 0 30.0001 0 30.3001C0 33.0601 0.01 35.8201 0.02 38.5901C0.06 49.6701 0.1 60.7501 0.12 71.8201C0.12 72.5201 0.32 72.9201 0.96 73.2701C2.98 74.3801 4.95 75.5701 6.94 76.7301C8.39 77.5701 9.85 78.4001 11.51 79.3601V57.9601C11.86 58.1601 12.02 58.3801 12.13 58.6201C16.45 67.5701 20.8 76.5101 25.06 85.4901C25.89 87.2401 26.9 88.6201 28.72 89.3801C29.51 89.7101 34.68 92.7901 36.78 94.0001C36.78 93.1601 36.78 92.5501 36.78 91.9401C36.76 87.0601 36.73 82.1801 36.73 77.3001L36.74 77.2901Z" fill="#009EE0"/>
<path d="M59.4901 23.8802C59.1601 23.7002 58.6501 23.7202 58.2601 23.8002C51.0001 25.2802 43.7501 26.7902 36.5001 28.2902C36.1701 28.3602 35.8301 28.4002 35.2801 28.4902C38.1601 23.8302 40.9101 19.3802 43.6701 14.9102C43.3801 14.6902 43.1901 14.5202 42.9901 14.4002C39.8301 12.5702 36.6701 10.7302 33.4801 8.95021C33.1501 8.76021 32.5001 8.82021 32.1501 9.02021C22.5101 14.4902 12.9101 19.9902 3.31007 25.4902C2.84007 25.7602 2.39007 26.0402 1.82007 26.3802C2.18007 26.6102 2.40007 26.7702 2.63007 26.9102C5.00007 28.2802 7.40007 29.5902 9.72007 31.0202C10.4801 31.4902 11.0201 31.4302 11.7201 31.0202C16.1601 28.4502 20.6101 25.9102 25.0601 23.3602C25.6801 23.0002 26.3201 22.6602 26.9501 22.3202C27.0301 22.4102 27.1201 22.4902 27.2001 22.5802C24.8101 26.1602 22.4301 29.7402 19.9801 33.4102C22.0701 34.6202 24.0101 35.7902 26.0001 36.8802C26.4101 37.1002 27.0101 37.1802 27.4701 37.0802C32.5701 35.9802 37.6601 34.8302 42.7601 33.7002C43.8601 33.4602 44.9701 33.2802 46.0701 33.0702L46.1401 33.2502C40.7801 36.3402 35.4201 39.4302 29.9201 42.6002C30.3801 42.8802 35.6901 45.9202 37.9801 47.3002C38.6701 47.7202 39.1801 47.7302 39.9001 47.3202C49.7001 41.6402 59.5301 35.9902 69.3501 30.3302C69.5401 30.2202 69.7201 30.0802 69.9401 29.9202C69.7301 29.7702 69.6101 29.6702 69.4801 29.6002C66.1501 27.6802 62.8301 25.7502 59.4901 23.8702V23.8802Z" fill="#009EE0"/>
<path d="M69 66.9401C69 66.7201 68.95 66.5001 68.91 66.2001C63.77 69.1701 58.74 72.0901 53.54 75.0901V43.8501C53.24 43.9801 53.13 44.0201 53.03 44.0801C49.25 46.2601 45.48 48.4501 41.69 50.6101C41.16 50.9101 41.02 51.2801 41.02 51.8701C41.04 65.5601 41.04 79.2401 41.04 92.9301C41.04 93.2501 41.04 93.5701 41.04 94.0801C41.55 93.8301 41.88 93.6901 42.19 93.5101C45.35 91.6701 48.5 89.8201 51.66 87.9801C57.16 84.7901 62.66 81.6001 68.17 78.4201C68.67 78.1301 69.03 77.8501 69.02 77.1601C68.98 73.7501 69.02 70.3501 69.01 66.9401H69Z" fill="#009EE0"/>
<path d="M107.72 24.1102L117.69 41.6202H124.43V13.4902H117.67V30.9902L107.72 13.4902H100.94V41.6202H107.72V24.1102Z" fill="#003D6A"/>
<path d="M140.78 29.6802H150.12V24.6602H141.44H139.46H132.68V29.6802H139.46H140.78Z" fill="#003D6A"/>
<path d="M141.44 18.7302H152.09V13.4902H132.68V18.7302H139.46H141.44Z" fill="#003D6A"/>
<path d="M171.02 35.6399L173.99 41.6199H181.82L174.83 29.3599L171.02 35.6399Z" fill="#003D6A"/>
<path d="M167.42 19.1002L164.66 13.4902H156.93L163.61 25.3602L167.42 19.1002Z" fill="#003D6A"/>
<path d="M236.3 13.4902H229.52V41.6202H248.1V36.4002H236.3V13.4902Z" fill="#003D6A"/>
<path d="M274.29 36.4002H261.69V29.6802H272.36V24.6602H261.69V18.7302H274.33V13.4902H254.91V41.6202H274.29V36.4002Z" fill="#003D6A"/>
<path d="M297.52 13.4902L291.92 33.9702L286.34 13.4902H278.83L288.21 41.6202H295.63L305.1 13.4902H297.52Z" fill="#003D6A"/>
<path d="M330.47 36.4002H317.88V29.6802H328.54V24.6602H317.88V18.7302H330.51V13.4902H311.1V41.6202H330.47V36.4002Z" fill="#003D6A"/>
<path d="M355.77 36.4002H343.97V13.4902H337.19V41.6202H355.77V36.4002Z" fill="#003D6A"/>
<path d="M185.73 19.9002H194.03V41.9702H201.34V19.9002H209.72V13.9902H185.73V19.9002Z" fill="#003D6A"/>
<path d="M183.27 10.97L185.43 12.47L186.48 0L175.15 5.33L177.92 7.25L160.15 35.99H132.68V41.62H164.53L183.27 10.97Z" fill="#BDCF03"/>
<path d="M110.62 56.23L117.44 77.5L124.24 56.23H133.94V86.8H126.55V79.66L127.26 65.05L119.87 86.8H115L107.59 65.03L108.3 79.66V86.8H100.93V56.23H110.61H110.62Z" fill="#003D6A"/>
<path d="M155.08 86.8H147.73V56.23H155.08V86.8Z" fill="#003D6A"/>
<path d="M192.19 61.92H183.01V86.8H175.64V61.92H166.63V56.23H192.18V61.92H192.19Z" fill="#003D6A"/>
<path d="M228.24 61.92H219.06V86.8H211.69V61.92H202.68V56.23H228.23V61.92H228.24Z" fill="#003D6A"/>
<path d="M258.9 73.8297H247.31V81.1397H261V86.8097H239.94V56.2397H261.04V61.9297H247.31V68.3797H258.9V73.8397V73.8297Z" fill="#003D6A"/>
<path d="M279.98 81.1397H292.81V86.8097H272.61V56.2397H279.98V81.1397Z" fill="#003D6A"/>
<path d="M320.28 78.6798C320.28 77.5998 319.9 76.7598 319.14 76.1598C318.38 75.5598 317.04 74.9398 315.12 74.2898C313.2 73.6498 311.64 73.0198 310.42 72.4198C306.46 70.4698 304.48 67.7998 304.48 64.3998C304.48 62.7098 304.97 61.2098 305.96 59.9198C306.95 58.6298 308.34 57.6198 310.15 56.8998C311.96 56.1798 313.98 55.8198 316.24 55.8198C318.5 55.8198 320.41 56.2098 322.15 56.9998C323.89 57.7798 325.25 58.8998 326.21 60.3498C327.18 61.7998 327.66 63.4498 327.66 65.3198H320.31C320.31 64.0698 319.93 63.1098 319.17 62.4198C318.41 61.7298 317.38 61.3898 316.07 61.3898C314.76 61.3898 313.71 61.6798 312.95 62.2598C312.19 62.8398 311.81 63.5798 311.81 64.4698C311.81 65.2498 312.23 65.9598 313.07 66.5998C313.91 67.2398 315.39 67.8898 317.5 68.5698C319.61 69.2498 321.35 69.9798 322.71 70.7598C326.01 72.6598 327.67 75.2898 327.67 78.6298C327.67 81.2998 326.66 83.3998 324.65 84.9298C322.63 86.4598 319.87 87.2198 316.36 87.2198C313.88 87.2198 311.64 86.7798 309.63 85.8898C307.62 84.9998 306.11 83.7798 305.09 82.2398C304.07 80.6898 303.57 78.9098 303.57 76.8998H310.96C310.96 78.5398 311.38 79.7398 312.23 80.5198C313.08 81.2998 314.45 81.6898 316.36 81.6898C317.58 81.6898 318.54 81.4298 319.25 80.8998C319.96 80.3698 320.31 79.6398 320.31 78.6798H320.28Z" fill="#003D6A"/>
<path d="M364.03 61.92H354.85V86.8H347.48V61.92H338.47V56.23H364.02V61.92H364.03Z" fill="#003D6A"/>
<path d="M390.58 81.09H380.48L378.72 86.8H370.85L382.06 56.23H388.99L400.28 86.8H392.36L390.58 81.09ZM382.24 75.4H388.81L385.51 64.8L382.23 75.4H382.24Z" fill="#003D6A"/>
<path d="M436.64 86.8H429.31L418.48 67.78V86.8H411.11V56.23H418.48L429.29 75.25V56.23H436.64V86.8Z" fill="#003D6A"/>
<path d="M449.9 86.8V56.23H459.75C462.45 56.23 464.88 56.84 467.04 58.07C469.2 59.3 470.88 61.02 472.09 63.26C473.3 65.49 473.91 67.99 473.93 70.77V72.18C473.93 74.98 473.34 77.49 472.16 79.71C470.98 81.93 469.31 83.66 467.16 84.92C465.01 86.17 462.61 86.81 459.97 86.82H449.91L449.9 86.8ZM457.27 61.92V81.13H459.83C461.94 81.13 463.57 80.38 464.7 78.87C465.83 77.37 466.4 75.13 466.4 72.16V70.84C466.4 67.89 465.83 65.66 464.7 64.16C463.57 62.66 461.91 61.91 459.74 61.91H457.26L457.27 61.92Z" fill="#003D6A"/>
</g>
<defs>
<clipPath id="clip0_55_35">
<rect width="473.92" height="94.08" fill="white"/>
</clipPath>
</defs>
</svg>
